<svg xmlns="http://www.w3.org/2000/svg" xmlns:xlink="http://www.w3.org/1999/xlink" width="913.6" height="296.713" viewBox="0 0 913.6 296.713">
  <defs>
    <linearGradient id="linear-gradient" x1="0.5" x2="0.5" y2="1" gradientUnits="objectBoundingBox">
      <stop offset="0" stop-color="#fc4a1a"/>
      <stop offset="1" stop-color="#f7b733"/>
    </linearGradient>
  </defs>
  <path id="Path_111" data-name="Path 111" d="M141.76-142.08c-16.64-14.4-36.16-20.48-60.48-20.48-34.24,0-68.16,15.04-68.16,50.88,0,37.12,36.8,49.28,66.24,50.56,21.44.64,26.88,6.72,26.88,14.08C106.56-38.72,96-33.28,82.56-33.6c-16.64-.32-35.52-3.84-55.04-19.84L7.68-20.8C34.56,1.6,58.56,6.08,81.92,6.08c50.24,0,69.44-27.52,69.12-53.12-.32-43.52-37.76-49.92-68.8-50.88-15.36-.32-23.36-5.12-23.36-13.76,0-7.68,7.68-13.12,22.72-13.12,14.4,0,25.6,3.2,37.44,11.52Zm144.64,2.24c-8.32-14.08-26.88-21.76-46.72-21.76-46.72-.64-82.88,30.08-82.88,82.56,0,52.16,34.24,82.88,81.6,82.56,15.36-.32,38.08-6.72,48.64-23.36L289.6,0h41.6V-158.08H288Zm-41.92,18.88c27.52,0,41.92,20.8,41.92,43.52,0,19.84-16,40-41.92,40-23.04,0-41.6-15.36-41.6-41.6S221.44-120.96,244.48-120.96ZM467.2-50.88c-7.68,7.68-21.76,11.84-32,11.84-21.44,0-40.64-14.4-40.64-39.68,0-26.24,18.56-41.28,41.6-41.28,9.6,0,20.16,1.92,29.76,9.28l25.6-29.12c-16-16.64-34.24-21.76-57.28-21.76-46.08,0-86.08,29.76-86.08,82.88,0,56.96,40.32,82.24,86.4,82.24,20.16,0,42.88-5.76,61.76-24.32Zm34.639-239.753L507.2,0h46.08V-80c0-25.28,16-38.72,35.2-38.72,18.24,0,30.08,12.16,30.08,34.24V0h46.08V-84.8c0-56.32-25.92-75.84-63.04-75.84-16,0-34.88,5.12-48,22.08V-224ZM734.72-158.4V0H688.64V-158.4ZM685.44-200c0-34.56,69.187-74.938,69.187-40.378S685.44-165.44,685.44-200ZM921.28,0V-83.84c0-61.44-30.4-78.08-65.92-78.08-19.2-.32-37.12,5.76-51.2,24l-1.6-20.16h-41.6V0H806.4V-81.6c0-20.48,14.4-39.04,35.84-38.72,22.08,0,32.64,12.48,32.64,36.8V0Z" transform="translate(-7.68 290.633)" fill="url(#linear-gradient)"/>
</svg>
