<svg xmlns="http://www.w3.org/2000/svg" xmlns:xlink="http://www.w3.org/1999/xlink" viewBox="0 0 69.64 133.52"><defs><style>.cls-1{fill:url(#Degradado_sin_nombre_52);}.cls-2{fill:url(#Degradado_sin_nombre_52-2);}.cls-3{fill:url(#Degradado_sin_nombre_52-3);}</style><linearGradient id="Degradado_sin_nombre_52" x1="78.83" y1="8.98" x2="-4.3" y2="47.77" gradientUnits="userSpaceOnUse"><stop offset="0.03" stop-color="#dc3636"/><stop offset="0.78" stop-color="#e6a52d"/></linearGradient><linearGradient id="Degradado_sin_nombre_52-2" x1="66.29" y1="86.17" x2="16.26" y2="111.19" xlink:href="#Degradado_sin_nombre_52"/><linearGradient id="Degradado_sin_nombre_52-3" x1="0.2" y1="40.35" x2="69.71" y2="90.72" xlink:href="#Degradado_sin_nombre_52"/></defs><g id="Layer_2" data-name="Layer 2"><g id="OBJECTS"><path class="cls-1" d="M29.88,50.46H30l0-.09,16.68-9.46A30,30,0,0,0,58,0h0L14.7,24.56l-.55.33C8.67,29.26,7.52,50.46,29.88,50.46Z"/><path class="cls-2" d="M54.65,87.53C51.44,83.1,45.23,79.05,39.58,81h0l-20,11.52a30,30,0,0,0-11,41h0l46.84-27,.93-.58A18.85,18.85,0,0,0,54.65,87.53Z"/><path class="cls-3" d="M68.45,72.8A29.68,29.68,0,0,0,40.8,51l-10.69-.47h-.06v0h-.16c-22.36,0-21.21-21.2-15.73-25.57A30.09,30.09,0,0,0,28.8,80.46l10.7.47h.06a.31.31,0,0,1,0,.08h0c5.65-2,11.86,2.09,15.07,6.52a18.85,18.85,0,0,1,1.75,18.38A29.68,29.68,0,0,0,68.45,72.8Z"/></g></g></svg>